<?xml version="1.0" encoding="UTF-8" standalone="no"?><!DOCTYPE svg PUBLIC "-//W3C//DTD SVG 1.1//EN" "http://www.w3.org/Graphics/SVG/1.1/DTD/svg11.dtd"><svg width="100%" height="100%" viewBox="0 0 5000 5000" version="1.1" xmlns="http://www.w3.org/2000/svg" xmlns:xlink="http://www.w3.org/1999/xlink" xml:space="preserve" xmlns:serif="http://www.serif.com/" style="fill-rule:evenodd;clip-rule:evenodd;stroke-linejoin:round;stroke-miterlimit:2;"><g id="Background"><circle cx="2499.254" cy="2500" r="2415.838" style="fill:#00552c;"/><path d="M3751.713,1916.32c-1.553,5.55 -15.097,69.798 -49.922,95.593c-10.76,7.97 -26.736,23.47 -90.957,22.017c-0.199,-0.004 -49.792,3.054 -71.075,-35.685c-10.67,-19.421 -9.085,-51.618 20.871,-174.827c1.038,-4.269 7.591,-40.097 20.77,-68.115c13.24,-28.148 31.047,-40.81 34.668,-43.384c39.747,-28.262 113.32,-27.572 139.442,-7.898c5.204,3.919 21.504,19.849 24.827,36.934c1.504,7.732 4.146,21.317 -11.446,97.792c-1.04,5.102 -13.369,62.318 -17.178,77.573Zm-93.552,-151.979c-8.875,17.468 -9.479,25.44 -26.512,93.872c-4.83,19.405 -19.766,93.176 -13.601,106.295c5.087,10.824 27.66,13.045 36.84,0.913c15.389,-20.339 24.007,-77.983 39.323,-146.488c2.124,-9.499 7.824,-56.399 7.304,-58.345c-4.008,-14.997 -31.532,-8.732 -36.523,-4.665c-2.265,1.845 -4.316,4.373 -4.652,4.787c-1.345,1.658 -0.8,1.931 -2.179,3.63Zm-174.295,-62.351c18.828,2.21 18.446,3.942 34.463,13.966c19.54,12.229 24.943,37.179 -1.237,151.505c-17.941,78.347 -16.32,102.724 -47.654,132.261c-35.605,33.563 -81.753,27.89 -151.574,28.784c-20.595,0.264 -32.356,0.8 -34.643,-4.291c-6.616,-14.73 9.44,-71.141 13.965,-98.152c1.664,-9.931 11.901,-52.79 16.372,-77.813c3.47,-19.418 31.022,-139.595 35.468,-144.903c3.147,-3.757 11.725,-3.829 12.793,-3.837c67.842,-0.564 82.589,-0.226 122.046,2.481Zm-77.221,82.876c-25.189,116.189 -25.034,116.181 -27.438,126.232c-0.93,3.887 -11.043,46.163 -10.176,48.915c3.309,10.501 32.05,5.396 35.74,3.278c0.283,-0.162 14.357,-4.544 25.362,-56.562c6.256,-29.569 6.712,-29.369 13.359,-58.89c0.236,-1.048 13.209,-68.716 9.825,-77.267c-2.371,-5.99 -32.467,-17.611 -40.826,-4.276c-0.827,1.32 -1.825,2.911 -5.845,18.57Zm-498.829,115.273c-9.569,0.243 -9.533,0.052 -10.333,0.263c-0.343,0.09 -2.63,0.691 -3.968,1.968c-6.124,5.848 -9.207,37.438 -21.041,87.148c-8.089,33.982 -7.384,37.55 -18.517,38.49c-3.674,0.31 -57.722,-0.986 -58.302,-1.071c-16.862,-2.487 -5.325,-13.181 3.341,-61.821c5.708,-32.036 11.822,-46.5 31.267,-151.033c10.138,-54.498 15.127,-53.411 20.804,-92.662c2.224,-15.376 1.975,-21.947 32.252,-22.268c6.635,-0.07 69.607,-0.737 82.942,-0.269c41.187,1.445 53.935,0.631 76.17,28.762c13.417,16.974 6.997,54.595 -1.854,76.964c-13.69,34.598 -21.569,40.407 -31.351,46.626c-22.029,14.004 -1.181,21.622 4.634,27.482c3.529,3.556 8.735,8.801 -1.339,62.603c-10.825,57.816 -9.708,81.893 -17.671,85.645c-6.08,2.865 -66.498,-0.035 -67.256,-0.162c-13.431,-2.254 -9.646,-14.513 -5.531,-32.252c8.369,-36.082 8.399,-36.068 11.917,-72.964c1.969,-20.652 -5.523,-19.586 -26.166,-21.449Zm48.508,-81.423c7.299,-12.219 8.317,-17.687 9.584,-34.072c0.121,-1.56 1.083,-13.997 -4.994,-18.904c-6.881,-5.556 -23.687,-7.502 -28.923,-7.114c-10.433,0.773 -12.401,4.786 -18.496,40.849c-3.956,23.405 -14.855,35.884 8.871,35.587c27.863,-0.349 30.278,-11.306 33.958,-16.346Zm-322.16,-120.168c85.294,1.49 124.892,-2.381 145.314,10.02c11.75,7.135 14.753,11.486 15.673,12.819c15.235,22.072 17.001,34.34 8.759,77.667c-7.232,38.019 -24.585,56.323 -32.777,68.724c-16.5,24.976 -62.514,29.126 -68.459,29.662c-33.88,3.055 -46.585,-2.977 -51.135,8.357c-1.519,3.783 -19.085,81.964 -22.127,103.484c-2.048,14.493 -3.063,18.242 -24.442,18.363c-46.161,0.26 -50.328,0.76 -53.14,-4.035c-4.731,-8.07 5.005,-35.253 15.322,-92.216c1.573,-8.684 31.813,-155.593 42.697,-195.554c2.719,-9.983 5.269,-22.314 5.673,-24.267c3.234,-15.641 10.395,-12.454 18.642,-13.023Zm35.162,120.477c-0.5,3.224 -5.604,19.497 8.859,18.345c31.574,-2.514 33.769,-10.666 44.788,-32.77c5.976,-11.988 15.645,-33.956 -10.634,-44.199c-26.92,-10.493 -28.409,0.663 -36.052,28.568c-4.297,15.689 -3.887,16.492 -6.961,30.056Zm484.298,-111.409c6.84,-7.317 7.756,-8.529 56.824,-8.074c31.294,0.291 42.43,-4.208 41.834,11.868c-3.788,102.258 2.703,233.522 -0.749,302.864c-0.659,13.244 -3.434,14.33 -16.65,14.047c-52.247,-1.119 -52.262,-1.322 -52.908,-1.544c-13.114,-4.502 3.242,-48.557 -5.304,-56.975c-3.534,-3.481 -4.287,-1.997 -34.6,-4.184c-3.243,-0.234 -6.479,-0.57 -9.724,-0.777c-18.026,-1.152 -16.911,7.509 -24.668,24.802c-11.298,25.186 -8.64,28.228 -11.473,33.28c-3.148,5.615 -6.427,5.759 -61.476,4.84c-1.455,-0.024 -10.711,1.003 -13.773,-4.408c-3.266,-5.771 0.873,-9.02 9.909,-33.198c7.658,-20.49 12.412,-24.245 27.852,-64.039c10.244,-26.403 21.328,-47.166 22.417,-49.683c19.216,-44.415 19.726,-44.17 21.305,-48.069c26.139,-64.557 35.709,-78.651 51.185,-120.751Zm-0.567,160.437c-7.503,22.036 -7.939,21.856 -7.913,23.868c0.01,0.753 2.415,7.936 2.669,8.108c0.328,0.222 21.338,4.206 26.969,-0.058c4.485,-3.396 2.567,-8.113 6.211,-37.195c3.669,-29.286 0.356,-33.93 8.777,-63.662c7.258,-25.628 2.346,-29.107 1.155,-29.745c-1.076,-0.577 -15.098,27.737 -21.221,48.963c-5.578,19.334 -6.893,18.844 -16.647,49.721Z" style="fill:#90c73b;"/><path d="M2159.811,3445.246c-0.89,-1.974 -1.959,-3.864 -2.849,-5.838c-13.536,-30.033 -7.541,-67.662 -5.5,-77.463c7.839,-37.639 41.693,-68.63 48.052,-73.593c4.66,-3.637 31.963,-24.946 68.714,-27.162c26.24,-1.583 41.489,3.273 53.946,6.492c11.442,2.957 35.316,16.324 46.935,27.348c40.016,37.963 47.099,90.747 39.147,120.151c-8.322,30.77 -18.25,55.816 -46.855,79.175c-42.646,34.823 -113.47,32.631 -147.769,10.259c-31.719,-20.689 -41.931,-36.187 -53.821,-59.368Zm767.712,28.647c-1.264,-1.528 -1,-1.581 -2.211,-3.045c-1.05,-1.269 -1.162,-1.041 -2.172,-2.252c-11.606,-13.914 -19.081,-36.102 -19.773,-38.578c-18.849,-67.445 16.824,-110.399 22.957,-117.784c21.448,-25.826 41.512,-42.844 84.316,-50.632c15.933,-2.899 55.566,0.825 73.577,10.889c16.534,9.239 54.677,22.976 74.059,93.799c11.561,42.248 -15.644,92.253 -24.611,103.919c-17.739,23.078 -37.541,34.168 -41.384,36.32c-17.694,9.909 -104.612,40.096 -164.758,-32.636Zm-1276.895,-1382.039c0.035,-0.205 19.301,-94.011 20.173,-97.577c10.318,-42.209 29.552,-140.102 33.638,-156.421c6.991,-27.924 12.024,-58.402 12.98,-62.713c0.696,-3.139 6.042,-27.255 9.539,-39.04c7.528,-25.371 5.763,-36.195 23.668,-37.739c1.651,-0.142 157.092,0.156 170.752,0.182c229.962,0.441 306.936,-1.03 346.758,7.673c30.355,6.634 41.694,8.101 63.476,14.766c18.496,5.659 51.686,23.304 64.135,33.44c36.547,29.758 46.3,49.523 56.733,74.635c2.73,6.572 15.182,36.543 16.419,87.429c1.19,48.919 -8.29,106.318 -8.571,107.763c-2.389,12.275 -2.722,12.12 -5.196,24.425c-8.428,41.917 -12.594,50.555 -24.979,87.878c-6.255,18.85 -28.262,63.321 -39.353,78.282c-37.108,50.057 -51.077,57.443 -74.502,76.937c-29.095,24.212 -58.083,33.724 -69.187,43.884c-0.611,0.559 -2.002,0.68 -1.976,1.508c0.037,1.184 3.513,7.156 4.117,7.345c2.86,0.899 19.744,0.36 34.299,10.179c23.825,16.072 34.976,17.958 56.866,60.326c22.665,43.869 3.259,126.43 -18.286,268.145c-20.821,136.952 -21.372,136.744 -43.111,273.566c-9.68,60.925 -13.254,60.716 -11.555,68.333c1.957,8.77 10.252,5.966 68.948,6.395c260.455,1.902 398.909,0.595 590.841,0.889c89.368,0.137 151.349,0.743 170.91,-2.445c26.97,-4.396 45.287,-25.868 49.764,-33.71c15.766,-27.616 15.958,-48.301 15.091,-93.376c-2.066,-107.438 -1.742,-107.374 -2.949,-214.803c-0.237,-21.095 -2.692,-239.698 -2.811,-263.691c-0.603,-122.323 -3.768,-237.836 0.707,-253.569c5.153,-18.116 11.827,-19.62 37.819,-20.505c12.971,-0.442 126.397,0.421 136.736,0.605c19.806,0.353 32.402,-1.65 37.579,15.075c5.517,17.82 -17.035,343.38 -18.151,356.041c-6.314,71.614 -0.152,72.381 -7.355,97.764c-2.248,7.921 -5.239,10.409 2.468,13.527c3.478,1.407 3.077,-0.475 5.201,-3.501c0.65,-0.927 1.854,-1.393 2.443,-2.36c0.606,-0.993 0.259,-1.144 6.331,-13.095c4.87,-9.585 2.986,-17.277 13.933,-44.082c6.718,-16.449 5.27,-16.904 11.78,-33.396c19.314,-48.93 18.687,-49.137 20.37,-53.387c11.581,-29.256 11.641,-33.229 13.975,-39.339c14.091,-36.889 32.063,-87.764 34.019,-92.831c24.872,-64.422 22.716,-65.166 59.233,-160.886c1.041,-2.73 10.845,-28.427 15.229,-33.195c6.59,-7.167 8.031,-7.274 115.446,-7.19c62.204,0.049 64.89,-1.311 78.872,14.929c9.31,10.813 -0.709,25.173 -8.465,45.362c-5.281,13.747 -10.224,26.614 -70.847,169.907c-26.679,63.061 -26.552,63.055 -28.934,68.507c-12.767,29.218 -136.356,321.821 -136.574,322.326c-21.588,49.902 -22.084,49.597 -23.931,53.942c-10.416,24.506 -63.733,143.212 -70.333,155.276c-17.575,32.126 -15.355,33.359 -48.373,83.111c-2.144,3.23 -12.598,18.983 -30.173,37.917c-3.637,3.918 -23.172,21.308 -32.243,26.326c-22.045,12.194 -20.744,14.748 -44.38,23.336c-13.476,4.897 -15.888,11.999 -82.616,20.857c-67.761,8.995 -212.277,3.276 -419.981,3.7c-35.546,0.073 -442.519,0.904 -444.331,0.897c-61.499,-0.235 -69.588,2.374 -97.99,-3.624c-31.322,-6.615 -39.66,-11.017 -42.819,-12.685c-50.391,-26.605 -65.383,-43.235 -80.602,-65.723c-23.803,-35.169 -26.713,-50.818 -29.116,-59.292c-17.646,-62.242 -8.211,-63.292 0.484,-127.496c2.898,-21.397 11.522,-56.262 14.326,-73.345c8.011,-48.808 9.724,-48.413 17.652,-97.161c9.644,-59.303 11.86,-58.799 16.353,-88.395c15.738,-103.668 30.377,-177.463 10.288,-209.094c-9.333,-14.696 -9.273,-14.923 -23.066,-25.51c-16.678,-12.802 -17.551,-15.741 -107.778,-15.615c-8.988,0.013 -94.466,0.132 -112.341,0.961c-13.912,0.645 -12.722,14.004 -15.014,24.822c-3.895,18.377 -3.024,18.454 -6.303,33.875c-35.365,166.331 -34.795,166.443 -38.198,180.832c-16.376,69.245 -23.085,166.293 -90.062,236.282c-35.261,36.846 -38.653,32.718 -65.947,50.915c-6.435,4.29 -36.197,17.395 -43.562,19.496c-41.343,11.794 -102.402,31.264 -116.588,1c-7.176,-15.308 2.562,-15.55 13.515,-82.998c2.338,-14.397 8.422,-24.469 5.062,-28.641c-3.156,-3.92 -3.846,-2.914 -8.933,-2.587c-15.475,0.995 -15.394,0.454 -88.029,0.176c-82.179,-0.315 -82.809,-1.725 -108.556,-15.33c-25.344,-13.392 -38.997,-25.059 -54.663,-49.801c-14.17,-22.379 -15.146,-31.148 -18.889,-44.882c-8.507,-31.215 -6.266,-31.839 2.951,-83.168c4.911,-27.347 6.25,-26.987 12.105,-54.192c34.841,-161.89 35.504,-161.737 38.195,-175.882c1.045,-5.494 6.426,-33.782 17.842,-67.589c8.017,-23.742 21.283,-20.241 37.752,-20.62c38.378,-0.884 241.195,0.024 263.671,1.073c18.787,0.877 14.852,-10.407 19.762,-24.759c10.581,-30.93 7.645,-31.599 15.695,-63.243c9.932,-39.039 14.32,-68.79 16.699,-78.768c2.564,-10.753 3.285,-13.833 14.015,-63.566Zm-33.669,503.043c12.562,-63.087 13.622,-62.818 14.568,-68.326c14.753,-85.911 26.385,-100.507 12.011,-104.033c-1.066,-0.261 -1.03,-0.12 -10.24,-0.195c-20.779,-0.169 -38.309,-2.304 -44.741,0.599c-5.754,2.597 -7.861,17.287 -9.581,25.669c-7.047,34.34 -9.379,33.767 -15.641,68.195c-9.29,51.082 -27.598,123.534 -31.336,151.843c-2.903,21.99 -9.991,37.59 -2.185,44.954c3.448,3.253 13.719,2.507 20.478,2.562c119.618,0.971 119.598,-2.734 121.797,-4.165c8.155,-5.303 8.598,-27.116 8.813,-29.055c1.13,-10.185 4.057,-20.714 -2.599,-25.97c-5.999,-4.738 -66.772,4.519 -71.936,-4.615c-2.191,-3.875 1.302,-16.911 1.683,-18.333c5.205,-19.426 5.63,-19.252 8.908,-39.13Zm-114.738,-23.937c2.579,-12.935 2.126,-12.987 6.718,-25.341c0.233,-0.627 2.165,-5.824 0.715,-8.334c-3.157,-5.464 -4.932,-2.831 -37.522,-3.949c-32.772,-1.125 -43.36,3.58 -40.936,-16.437c1.506,-12.433 0.875,-24.419 6.193,-29.706c8.367,-8.318 51.958,-2.916 73.849,-3.989c15.019,-0.736 16.567,-4.335 21.021,-39.138c1.107,-8.646 4.395,-20.052 -6.04,-21.783c-5.809,-0.964 -5.827,0.233 -73.61,-0.46c-45.617,-0.467 -58.587,-1.166 -64.122,0.978c-6.433,2.491 -11.226,7.831 -32.459,114.036c-30.579,152.954 -33.278,152.383 -35.261,165.798c-1.952,13.206 10.158,12.568 19.59,12.651c10.153,0.09 106.416,0.94 126.912,0.628c18.857,-0.287 13.6,-8.829 19.331,-37.729c3.091,-15.587 6.207,-22.46 -9.612,-22.679c-55.343,-0.768 -67.395,2.207 -72.037,-2.78c-7.878,-8.463 7.779,-49.792 9.503,-51.863c9.288,-11.156 52.217,-4.277 67.39,-3.665c16.991,0.685 16.234,-4.887 20.377,-26.236Zm715.619,-610.586c0.883,-26.315 4.281,-59.813 -25.791,-89.984c-8.918,-8.947 -34.107,-36.741 -133.913,-38.352c-22.083,-0.356 -92.389,0.216 -92.907,0.246c-12.701,0.753 -12.544,11.492 -14.542,20.744c-2.619,12.13 -16.449,76.19 -31.944,151.799c-19.286,94.108 -20.148,93.913 -21.746,102.111c-5.665,29.061 -17.703,81.804 -17.991,83.32c-4.824,25.387 -11.221,44.246 -11.859,48.445c-1.977,13.006 13.736,10.657 15.176,10.628c78.136,-1.594 144.809,4.136 180.707,-5.532c67.431,-18.16 90.54,-63.881 93.305,-68.125c2.471,-3.792 18.367,-28.187 26.39,-50.047c8.774,-23.905 10.683,-23.25 16.124,-48.188c6.39,-29.285 15.772,-56.651 18.991,-117.067Zm490.003,168.088c21.961,-3.269 21.956,-3.223 23.858,-3.547c75.729,-12.912 158.429,0.723 201.108,13.966c27.515,8.538 45.574,16.714 80.57,43.46c19.878,15.192 45.355,60.625 48.913,85.994c7.756,55.302 -7.369,110.023 -15.539,170.909c-4.606,34.323 -5.253,34.126 -10.945,68.292c-0.579,3.474 -7.011,42.079 -7.306,43.416c-4.346,19.657 -12.512,18.031 -174.509,17.02c-82.997,-0.518 -82.924,0.684 -156.26,0.213c-24.388,-0.157 -39.279,-2.542 -43.684,2.817c-4.431,5.391 -6.163,33.86 -16.303,87.44c-1.311,6.927 -11.88,62.778 -6.795,87.866c7.141,35.233 51.065,40.664 61.866,41.025c45.032,1.504 59.1,-26.675 62.674,-31.58c21.682,-29.754 8.54,-53.584 39.806,-55.119c24.769,-1.216 24.75,-0.621 131.951,-0.238c37.131,0.133 56.311,-2.606 62.048,17.236c4.238,14.66 -20.074,76.632 -33.684,96.663c-58.9,86.693 -116.181,99.115 -139.786,109.953c-18.723,8.596 -72.828,21.739 -118.015,23.665c-127.998,5.455 -183.071,-24.672 -204.719,-36.101c-38.939,-20.558 -60.599,-55.245 -64.257,-62.486c-25.806,-51.092 -30.122,-83.222 -19.328,-146.719c26.613,-156.556 24.72,-161.759 31.081,-194.997c10.197,-53.278 9.446,-64.636 13.595,-88.082c0.159,-0.898 14.267,-72.862 14.362,-73.268c4.721,-20.155 19.423,-56.445 20.272,-58.163c12.765,-25.84 18.016,-32.32 25.166,-43.304c6.282,-9.652 22.525,-29.579 35.668,-41.898c58.457,-54.792 109.49,-63.496 158.192,-74.434Zm96.659,145.715c-1.481,-0.663 -12.83,-7.78 -33.508,-7.897c-29.847,-0.169 -69.224,24.787 -83.348,79.819c-5.444,21.212 -9.867,61.316 -9.925,63.554c-0.449,17.243 17.186,11.85 39.571,12.452c39.144,1.053 39.049,0.614 78.109,0.003c25.74,-0.403 34.951,4.021 36.022,-17.24c2.915,-57.883 14.128,-60.704 8.286,-83.186c-7.859,-30.246 -21.01,-39.157 -35.207,-47.505Z" style="fill:#fefa00;"/><path id="Supermer" d="M3319.416,1535.96c0.803,-3.593 7.815,-34.961 13.54,-43.988c8.23,-12.978 45.888,-8.726 51.323,-3.261c10.819,10.88 -2.635,81.232 2.16,85.831c4.17,3.999 8.25,-0.078 8.745,-0.574c0.717,-0.716 8.056,-27.004 27.301,-66.607c7.628,-15.697 11.763,-18.403 13.341,-19.436c9.218,-6.032 40.987,-3.641 43.747,-2.872c5.352,1.49 6.912,6.244 7.162,7.006c2.168,6.608 -15.694,84.161 -19.311,101.823c-10.993,53.685 -11.269,54.001 -14.389,57.58c-5.346,6.132 -24.268,4.69 -28.462,3.574c-5.633,-1.499 -5.974,-1.785 -7.722,-7.271c-1.886,-5.918 11.808,-45.223 15.97,-63.715c9.569,-42.508 14.654,-42.575 11.332,-48.062c-0.367,-0.606 -3.636,-6.004 -8.856,-0.114c-3.771,4.255 -16.087,49.073 -30.424,82.377c-10.358,24.061 -7.044,36.632 -28.396,36.797c-15.589,0.121 -17.35,-5.596 -17.392,-16.917c-0.164,-44.401 6.187,-74.582 5.814,-92.623c-0.197,-9.512 -1.622,-10.331 -2.388,-10.771c-4.477,-2.572 -5.507,-2.379 -8.097,2.037c-0.341,0.581 0.393,1.346 0.253,2.005c-0.171,0.8 -0.95,1.377 -1.143,2.172c-0.527,2.173 0.65,18.532 -14.453,82.98c-4.684,19.987 -2.894,31.841 -21.251,32.891c-7.053,0.403 -18.479,-0.134 -17.647,-13.654c1.529,-24.868 11.485,-71.176 19.242,-107.209Zm-135.686,18.713c0.588,-3.075 4.481,-23.428 8.635,-38.17c7.933,-28.15 9.743,-31.791 23.066,-32.529c23.994,-1.328 44.951,0.208 48.849,0.493c24.546,1.799 34.301,-0.34 34.953,21.856c1.245,42.403 -17.737,54.012 -16.618,73.37c0.452,7.823 1.894,7.885 -2.886,58.579c-1.979,20.989 -9.124,18.161 -30.134,17.688c-22.737,-0.511 -15.613,-14.746 -9.758,-42.173c6.988,-32.732 -13.582,-28.768 -14.374,-28.362c-9.147,4.692 -8.777,22.77 -14.731,43.069c-5.486,18.7 -6.625,26.286 -20.011,27.488c-9.161,0.823 -21.696,0.661 -23.093,-8.171c-0.96,-6.064 4.862,-45.204 16.102,-93.141Zm73.731,-19.83c0.425,-1.419 1.15,-2.737 1.575,-4.156c5.579,-18.633 -16.281,-18.334 -22.62,-12.81c-6.543,5.702 -13.605,38.536 3.173,36.287c9.401,-1.26 16.55,-16.858 17.872,-19.321Zm354.417,25.435c12.879,-60.037 12.09,-72.629 28.572,-76.306c4.405,-0.983 42.151,-0.854 53.285,0.026c27.539,2.177 37.096,9.132 36.931,27.3c-0.301,33.214 -7.218,36.776 -10.528,40.636c-14.739,17.192 -13.243,20.716 -9.883,26.557c6.909,12.012 3.434,15.987 -0.377,50.085c-2.355,21.067 0.236,28.469 -20.92,28.776c-16.575,0.241 -20.635,-2.263 -22.566,-9.618c-1.27,-4.838 4.22,-37.457 3.624,-48.644c-0.086,-1.612 -1.009,-18.939 -14.837,-13.675c-5.225,1.989 -8.132,12.833 -8.472,14.105c-12.659,47.23 -10.49,48.46 -16.123,53.551c-2.888,2.61 -9.292,3.26 -10.142,3.347c-12.763,1.296 -22.866,0.131 -22.29,-13.258c1.196,-27.795 11.885,-73.874 13.725,-82.881Zm46.809,-24.779c-0.11,1.671 -4.724,20.265 10.629,18.591c16.754,-1.827 23.18,-34.968 10.108,-38.64c-14.391,-4.042 -18.272,9.072 -18.763,10.731c-0.216,0.731 -0.146,0.69 -1.975,9.318Zm-733.115,-19.771c-18.782,75.015 -15.123,93.374 -34.206,121.316c-20.156,29.512 -80.907,35.057 -92.381,1.586c-4.221,-12.313 -2.231,-17.503 -0.1,-44.536c3.724,-47.256 13.689,-55.15 17.204,-87.631c0.167,-1.545 1.709,-15.789 4.63,-18.865c3.471,-3.654 12.663,-3.828 13.81,-3.85c9.852,-0.187 31.701,-2.881 27.507,12.36c-2.12,7.705 -3.525,7.251 -8.293,29.711c-4.354,20.51 -7.521,41.938 -16.045,72.884c-2.073,7.525 -9.982,28.761 0.727,32.15c15.741,4.98 22.131,-13.989 22.845,-16.108c1.394,-4.138 21.617,-90.761 23.818,-108.171c2.159,-17.074 2.423,-23.892 32.361,-23.212c20.146,0.457 13.33,12.598 8.124,32.367Zm24.066,-14.658c3.45,-11.827 2.938,-16.716 26.476,-17.066c31.528,-0.47 65.316,-1.206 72.785,8.05c9.209,11.412 7.645,59.092 -15.262,81.679c-16.974,16.737 -43.686,9.163 -57.921,14.848c-15.746,6.289 -6.824,52.875 -16.264,62.133c-5.984,5.869 -35.294,8.242 -39.575,0.883c-5.356,-9.209 3.838,-14.555 13.406,-66.921c4.474,-24.487 3.538,-24.625 16.355,-83.605Zm34.586,34.354c-1.034,7.246 -3.883,20.182 2.496,22.413c11.579,4.05 34.644,-19.261 28.266,-36.779c-2.518,-6.916 -24.96,-15.253 -30.016,9.534c-0.326,1.597 -0.42,3.235 -0.746,4.832Zm-203.549,1.643c-3.671,-1.024 -9.559,-0.398 -20.117,-10.453c-6.336,-6.034 -5.904,-6.364 -11.968,-12.698c-10.542,-11.01 -16.57,3.728 -17.13,6.999c-3.728,21.775 21.284,24.72 39.007,44.508c23.756,26.524 2.701,69.302 -18.171,83.826c-46.537,32.384 -89.648,0.312 -85.222,-30.786c3.292,-23.134 29.802,-21.045 36.643,-16.287c6.702,4.661 6.219,9.415 7.603,16.676c4.507,23.651 21.291,10.986 25.01,-0.373c7.728,-23.607 -16.948,-34.237 -25.546,-41.866c-33.62,-29.835 -19.821,-49.04 -8.694,-70.568c16.021,-31 59.335,-28.386 79.068,-20.124c20.634,8.639 20.098,47.288 4.754,50.809c-1.705,0.391 -3.532,-0.054 -5.238,0.337Zm716.307,17.758c0.564,-2.694 6.012,-28.705 7.314,-33.624c7.803,-29.475 4.489,-38.167 28.403,-38.08c40.93,0.15 63.509,-0.559 68.044,4.017c4.935,4.98 0.365,21.499 -0.473,23.736c-4.587,12.244 -25.081,3.847 -38.266,5.165c-21.511,2.15 -20.868,24.762 -18.183,28.427c3.836,5.237 23.216,3.471 32.959,3.955c1.126,0.056 10.041,0.498 12.129,7.167c0.537,1.716 -1.813,18.996 -7.187,24.187c-9.232,8.917 -38.149,-1.559 -47.043,6.774c-2.904,2.72 -12.718,28.886 2.921,32.089c18.772,3.844 43.077,-9.716 40.566,14.778c-2.178,21.25 -10.051,22.325 -25.963,22.474c-4.679,0.044 -46.617,0.434 -58.496,-0.016c-8.77,-0.333 -10.638,0.242 -12.894,-8.173c-2.072,-7.73 15.223,-88.09 16.168,-92.875Zm-429.885,4.87c13.221,-62.949 16.49,-71.54 20.543,-73.84c7.228,-4.102 18.654,-2.811 64.156,-2.08c18.659,0.3 27.493,-0.806 22.829,17.313c-3.593,13.957 -9.211,16.488 -17.962,16.343c-16.247,-0.268 -39.52,-8.983 -43.87,13.33c-4.214,21.615 16.474,17.206 34.23,17.473c1.196,0.018 10.53,0.158 13.108,7.183c0.038,0.103 0.375,7.749 -1.85,14.897c-6.701,21.536 -37.468,9.596 -50.616,13.445c-12.026,3.52 -14.198,32.053 0.013,35.695c18.782,4.813 42.53,-13.623 39.576,13.866c-1.667,15.514 -5.653,20.399 -15.266,22.113c-1.25,0.223 -47.733,0.943 -68.225,-0.261c-23.727,-1.394 -8.24,-22.349 3.334,-95.478Z" style="fill:#fcfdfc;"/></g></svg>